<svg xmlns="http://www.w3.org/2000/svg" viewBox="0 0 1224 612"><defs><style>.cls-1{fill:#f0db4f;}.cls-2{fill:#654ff0;}.cls-3{fill:#fff;}.cls-4{font-size:82px;font-family:OpenSans-Bold, Open Sans;font-weight:700;letter-spacing:-0.01em;}.cls-5{font-size:49px;letter-spacing:0em;}</style></defs><title>wasm_on_chain</title><g id="Layer_4" data-name="Layer 4"><rect class="cls-1" x="505.49" y="209.21" width="197.84" height="171.62"/></g><g id="Layer_1" data-name="Layer 1"><path class="cls-2" d="M612,376h-3.3a70.17,70.17,0,0,1,0-140.34H612V0H0V612H612Z" transform="translate(0 0)"/><path class="cls-3" d="M77.74,202.84H118.3L146,350.31h.5l33.28-147.47h37.94l30.06,149.28h.59l31.56-149.28H319.7L268,419.53H227.76L198,272.06h-.78L165.26,419.53h-41Zm287.69,0h63.94l63.5,216.69H451l-13.81-48.22H364.38l-10.66,48.22H313Zm24.34,53.41-17.69,79.5h55.06l-20.31-79.5Z" transform="translate(0 0)"/><text/></g><g id="Layer_2" data-name="Layer 2"><path class="cls-1" d="M612,236h3.3a70.17,70.17,0,1,1,0,140.34H612V612h612V0H612Z" transform="translate(0 0)"/></g><g id="Layer_3" data-name="Layer 3"><text class="cls-4" transform="translate(656.48 255.82)">ON THE<tspan x="0" y="102">BLOCKCHAIN</tspan><tspan class="cls-5"><tspan x="0" y="180">BERLIN 2019</tspan></tspan></text></g></svg>